<svg width="500" height="500" viewBox="0 0 500 500" fill="none" xmlns="http://www.w3.org/2000/svg">
<g filter="url(#filter0_d_22_2)">
<path d="M50.4 251V249.2C52.44 249.08 53.97 248.84 54.99 248.48C56.07 248.12 56.79 247.4 57.15 246.32C57.51 245.24 57.69 243.62 57.69 241.46V196.82C57.69 194.6 57.51 192.98 57.15 191.96C56.79 190.88 56.07 190.16 54.99 189.8C53.97 189.38 52.44 189.14 50.4 189.08V187.28C51.78 187.34 53.52 187.4 55.62 187.46C57.72 187.52 59.79 187.55 61.83 187.55C64.17 187.55 66.36 187.52 68.4 187.46C70.44 187.4 72.09 187.34 73.35 187.28V189.08C71.31 189.14 69.75 189.38 68.67 189.8C67.65 190.16 66.96 190.88 66.6 191.96C66.24 192.98 66.06 194.6 66.06 196.82V241.46C66.06 243.62 66.24 245.24 66.6 246.32C66.96 247.4 67.65 248.12 68.67 248.48C69.75 248.84 71.31 249.08 73.35 249.2V251C72.09 250.88 70.44 250.82 68.4 250.82C66.36 250.76 64.17 250.73 61.83 250.73C59.79 250.73 57.72 250.76 55.62 250.82C53.52 250.82 51.78 250.88 50.4 251ZM12.78 251V249.2C14.82 249.08 16.35 248.84 17.37 248.48C18.45 248.12 19.17 247.4 19.53 246.32C19.89 245.24 20.07 243.62 20.07 241.46V196.82C20.07 194.6 19.89 192.98 19.53 191.96C19.17 190.88 18.45 190.16 17.37 189.8C16.35 189.38 14.82 189.14 12.78 189.08V187.28C14.04 187.34 15.69 187.4 17.73 187.46C19.77 187.52 21.96 187.55 24.3 187.55C26.4 187.55 28.47 187.52 30.51 187.46C32.61 187.4 34.35 187.34 35.73 187.28V189.08C33.69 189.14 32.13 189.38 31.05 189.8C30.03 190.16 29.34 190.88 28.98 191.96C28.62 192.98 28.44 194.6 28.44 196.82V241.46C28.44 243.62 28.62 245.24 28.98 246.32C29.34 247.4 30.03 248.12 31.05 248.48C32.13 248.84 33.69 249.08 35.73 249.2V251C34.35 250.88 32.61 250.82 30.51 250.82C28.47 250.76 26.4 250.73 24.3 250.73C21.96 250.73 19.77 250.76 17.73 250.82C15.69 250.82 14.04 250.88 12.78 251ZM25.29 219.86V218.06H60.84V219.86H25.29ZM109.013 203.39C114.293 203.39 118.403 205.01 121.343 208.25C124.343 211.43 125.843 216.41 125.843 223.19H94.0732L93.9832 221.48H117.203C117.323 218.54 117.083 215.84 116.483 213.38C115.883 210.86 114.923 208.85 113.603 207.35C112.343 205.85 110.693 205.1 108.653 205.1C105.893 205.1 103.433 206.48 101.273 209.24C99.1732 212 97.9132 216.38 97.4932 222.38L97.7632 222.74C97.6432 223.64 97.5532 224.63 97.4932 225.71C97.4332 226.79 97.4032 227.87 97.4032 228.95C97.4032 233.03 98.0632 236.54 99.3832 239.48C100.703 242.42 102.413 244.67 104.513 246.23C106.673 247.73 108.893 248.48 111.173 248.48C112.973 248.48 114.683 248.21 116.303 247.67C117.923 247.07 119.423 246.11 120.803 244.79C122.183 243.47 123.383 241.7 124.403 239.48L126.203 240.2C125.543 242.18 124.463 244.1 122.963 245.96C121.463 247.82 119.573 249.35 117.293 250.55C115.013 251.69 112.373 252.26 109.373 252.26C105.053 252.26 101.333 251.27 98.2132 249.29C95.1532 247.31 92.7832 244.58 91.1032 241.1C89.4832 237.56 88.6732 233.51 88.6732 228.95C88.6732 223.67 89.5132 219.14 91.1932 215.36C92.8732 211.52 95.2432 208.58 98.3032 206.54C101.363 204.44 104.933 203.39 109.013 203.39ZM262.637 203.39C267.557 203.39 271.637 205.43 274.877 209.51C278.117 213.53 279.737 219.65 279.737 227.87C279.737 233.27 278.807 237.8 276.947 241.46C275.147 245.06 272.717 247.76 269.657 249.56C266.597 251.36 263.267 252.26 259.667 252.26C256.667 252.26 253.757 251.42 250.937 249.74C248.177 248 246.107 245.45 244.727 242.09L246.527 243.08C248.027 245.48 249.887 247.28 252.107 248.48C254.327 249.62 256.607 250.19 258.947 250.19C262.967 250.19 265.967 248.39 267.947 244.79C269.987 241.13 271.007 235.49 271.007 227.87C271.007 223.01 270.617 218.96 269.837 215.72C269.057 212.48 267.857 210.08 266.237 208.52C264.617 206.9 262.547 206.09 260.027 206.09C257.267 206.09 254.687 207.35 252.287 209.87C249.947 212.33 248.507 215.96 247.967 220.76L246.887 219.5C247.547 214.4 249.317 210.44 252.197 207.62C255.137 204.8 258.617 203.39 262.637 203.39ZM248.597 180.53V246.32C247.817 246.98 247.007 247.67 246.167 248.39C245.387 249.05 244.607 249.71 243.827 250.37C243.047 251.03 242.237 251.72 241.397 252.44L239.867 251.81C240.107 250.97 240.257 250.13 240.317 249.29C240.437 248.39 240.497 247.49 240.497 246.59V191.33C240.497 188.63 240.017 186.65 239.057 185.39C238.097 184.07 236.297 183.41 233.657 183.41V181.52C235.577 181.7 237.437 181.79 239.237 181.79C240.977 181.79 242.627 181.7 244.187 181.52C245.807 181.28 247.277 180.95 248.597 180.53ZM351.152 187.28V189.08C349.112 189.14 347.552 189.38 346.472 189.8C345.452 190.16 344.762 190.88 344.402 191.96C344.042 192.98 343.862 194.6 343.862 196.82V241.46C343.862 243.62 344.042 245.24 344.402 246.32C344.762 247.4 345.452 248.12 346.472 248.48C347.552 248.78 349.112 248.93 351.152 248.93H357.722C360.542 248.93 362.822 248.63 364.562 248.03C366.362 247.43 367.772 246.5 368.792 245.24C369.872 243.92 370.682 242.18 371.222 240.02C371.762 237.86 372.182 235.22 372.482 232.1H374.552C374.372 233.96 374.282 236.42 374.282 239.48C374.282 240.62 374.312 242.27 374.372 244.43C374.492 246.53 374.672 248.72 374.912 251C371.852 250.88 368.402 250.82 364.562 250.82C360.722 250.76 357.302 250.73 354.302 250.73C352.982 250.73 351.272 250.73 349.172 250.73C347.132 250.73 344.912 250.76 342.512 250.82C340.112 250.82 337.682 250.85 335.222 250.91C332.762 250.91 330.422 250.94 328.202 251V249.2C330.242 249.08 331.772 248.84 332.792 248.48C333.872 248.12 334.592 247.4 334.952 246.32C335.312 245.24 335.492 243.62 335.492 241.46V196.82C335.492 194.6 335.312 192.98 334.952 191.96C334.592 190.88 333.872 190.16 332.792 189.8C331.772 189.38 330.242 189.14 328.202 189.08V187.28C329.462 187.34 331.112 187.4 333.152 187.46C335.192 187.52 337.382 187.55 339.722 187.55C341.822 187.55 343.892 187.52 345.932 187.46C348.032 187.4 349.772 187.34 351.152 187.28ZM401.722 251.63C399.262 251.63 397.132 251.18 395.332 250.28C393.532 249.32 392.152 248 391.192 246.32C390.292 244.64 389.842 242.69 389.842 240.47C389.842 237.83 390.442 235.67 391.642 233.99C392.902 232.31 394.492 230.96 396.412 229.94C398.332 228.92 400.342 228.08 402.442 227.42C404.602 226.7 406.642 226.04 408.562 225.44C410.482 224.78 412.042 224.03 413.242 223.19C414.502 222.35 415.132 221.24 415.132 219.86V214.28C415.132 211.76 414.742 209.84 413.962 208.52C413.242 207.2 412.252 206.33 410.992 205.91C409.732 205.43 408.322 205.19 406.762 205.19C405.262 205.19 403.642 205.4 401.902 205.82C400.222 206.24 398.872 207.11 397.852 208.43C398.992 208.67 399.982 209.27 400.822 210.23C401.662 211.19 402.082 212.42 402.082 213.92C402.082 215.42 401.602 216.62 400.642 217.52C399.682 218.36 398.452 218.78 396.952 218.78C395.212 218.78 393.922 218.24 393.082 217.16C392.302 216.02 391.912 214.76 391.912 213.38C391.912 211.82 392.302 210.56 393.082 209.6C393.862 208.64 394.852 207.74 396.052 206.9C397.432 205.94 399.202 205.13 401.362 204.47C403.582 203.75 406.072 203.39 408.832 203.39C411.292 203.39 413.392 203.69 415.132 204.29C416.872 204.83 418.312 205.64 419.452 206.72C421.012 208.16 422.032 209.93 422.512 212.03C422.992 214.07 423.232 216.53 423.232 219.41V244.43C423.232 245.93 423.442 247.01 423.862 247.67C424.342 248.33 425.062 248.66 426.022 248.66C426.682 248.66 427.312 248.51 427.912 248.21C428.512 247.91 429.232 247.43 430.072 246.77L431.062 248.3C429.802 249.26 428.602 250.07 427.462 250.73C426.322 251.33 424.792 251.63 422.872 251.63C421.132 251.63 419.692 251.33 418.552 250.73C417.412 250.13 416.542 249.26 415.942 248.12C415.402 246.92 415.132 245.42 415.132 243.62C413.512 246.32 411.562 248.33 409.282 249.65C407.062 250.97 404.542 251.63 401.722 251.63ZM404.962 248.03C406.942 248.03 408.772 247.46 410.452 246.32C412.192 245.18 413.752 243.47 415.132 241.19V223.55C414.412 224.57 413.362 225.44 411.982 226.16C410.602 226.82 409.102 227.51 407.482 228.23C405.862 228.89 404.302 229.7 402.802 230.66C401.362 231.56 400.162 232.76 399.202 234.26C398.242 235.76 397.762 237.71 397.762 240.11C397.762 242.51 398.392 244.43 399.652 245.87C400.972 247.31 402.742 248.03 404.962 248.03ZM469.496 203.39C474.416 203.39 478.496 205.43 481.736 209.51C484.976 213.53 486.596 219.65 486.596 227.87C486.596 233.27 485.666 237.8 483.806 241.46C482.006 245.06 479.576 247.76 476.516 249.56C473.456 251.36 470.126 252.26 466.526 252.26C463.526 252.26 460.616 251.42 457.796 249.74C455.036 248 452.966 245.45 451.586 242.09L453.386 243.08C454.886 245.48 456.746 247.28 458.966 248.48C461.186 249.62 463.466 250.19 465.806 250.19C469.826 250.19 472.826 248.39 474.806 244.79C476.846 241.13 477.866 235.49 477.866 227.87C477.866 223.01 477.476 218.96 476.696 215.72C475.916 212.48 474.716 210.08 473.096 208.52C471.476 206.9 469.406 206.09 466.886 206.09C464.126 206.09 461.546 207.35 459.146 209.87C456.806 212.33 455.366 215.96 454.826 220.76L453.746 219.5C454.406 214.4 456.176 210.44 459.056 207.62C461.996 204.8 465.476 203.39 469.496 203.39ZM455.456 180.53V246.32C454.676 246.98 453.866 247.67 453.026 248.39C452.246 249.05 451.466 249.71 450.686 250.37C449.906 251.03 449.096 251.72 448.256 252.44L446.726 251.81C446.966 250.97 447.116 250.13 447.176 249.29C447.296 248.39 447.356 247.49 447.356 246.59V191.33C447.356 188.63 446.876 186.65 445.916 185.39C444.956 184.07 443.156 183.41 440.516 183.41V181.52C442.436 181.7 444.296 181.79 446.096 181.79C447.836 181.79 449.486 181.7 451.046 181.52C452.666 181.28 454.136 180.95 455.456 180.53Z" fill="#EEF2E6"/>
</g>
<path d="M138.112 289.56L139.776 286.808C140.672 285.464 141.44 284.056 141.952 284.056C142.72 284.056 148.16 289.432 148.16 290.392C147.968 291.096 147.328 291.416 146.496 291.416H137.088C133.76 291.48 130.688 291.8 127.488 292.312L125.824 289.048C128.576 289.368 131.328 289.496 134.144 289.56H138.112ZM139.328 269.208C135.36 280.152 126.72 290.2 117.568 295.96L117.056 295.32C121.536 290.648 125.952 283.416 129.024 276.44C130.752 272.6 131.968 267.8 131.968 264.28L137.728 265.944C142.656 266.776 142.656 267.416 141.44 267.928L140.224 268.44C143.616 277.08 151.04 282.52 157.952 286.104L157.888 286.936C154.88 287.832 153.024 290.712 152.448 293.592C146.24 287.896 141.312 279.768 139.328 269.208ZM129.408 318.936V320.088C129.536 321.24 129.472 321.624 129.6 322.072C129.408 323.096 126.4 324.696 123.584 324.696C122.56 324.696 121.92 324.056 121.92 323.416C122.24 318.296 122.432 315.672 122.56 307.928V299.544V298.008C122.56 297.432 122.56 296.856 122.496 296.216L129.792 299.544H143.616L145.152 297.56C145.984 296.6 146.624 295.576 147.136 295.576C147.904 295.576 154.048 300.312 154.048 301.272C153.6 301.784 152.768 302.424 151.424 302.744V309.272C151.552 315.8 151.616 317.976 151.872 321.944C151.36 322.712 147.712 324.056 145.408 324.056C144.192 324.056 143.936 323.416 143.936 322.776C144.064 322.072 144.064 321.752 144.192 320.664V318.936H129.408ZM129.408 317.144H136.768H144.192V301.336H129.408V317.144ZM107.2 298.904L103.232 301.72C103.04 302.552 102.464 303.32 101.76 303.64L98.368 295.128C100.16 294.616 103.36 293.528 107.2 292.184V281.496H104.64C103.104 281.56 101.696 281.88 100.288 282.392L98.688 279.192C100.608 279.512 102.528 279.64 104.448 279.704H107.2V277.4C107.2 273.048 106.944 267.8 106.368 264.28C116.288 266.456 116.288 267.096 115.136 267.864L113.984 268.632V279.704H115.392L116.864 277.208C117.696 275.992 118.336 274.712 118.848 274.712C119.616 274.712 124.352 279.512 124.352 280.472C124.16 281.176 123.584 281.496 122.688 281.496H113.984V289.688L121.28 286.872L121.6 287.512C119.616 289.176 117.12 291.288 113.984 293.784V316.184C113.984 321.24 113.024 323.992 105.536 324.696C105.408 322.456 105.152 320.728 104.32 319.576C103.616 318.488 102.464 317.784 99.84 317.272V316.376C99.84 316.376 104.896 316.696 105.984 316.696C106.944 316.696 107.2 316.44 107.2 315.672V298.904ZM266.432 280.024L268.416 277.016C269.44 275.544 270.336 274.008 270.848 274.008C271.616 274.008 278.272 279.896 278.272 280.856C278.144 281.56 277.44 281.88 276.544 281.88H254.272C259.584 292.76 269.632 301.272 279.232 305.304L278.976 306.008C276.096 306.584 273.6 309.016 272.512 312.728C263.296 306.456 256.896 296.024 253.12 282.072V309.08H254.848L256.576 306.264C257.472 304.856 258.24 303.448 258.752 303.448C259.52 303.448 265.28 308.952 265.28 309.912C265.088 310.616 264.384 310.936 263.552 310.936H253.12V314.776C253.248 318.616 253.248 319.896 253.44 322.136C253.12 323.224 250.112 324.696 247.104 324.696C245.696 324.696 245.248 324.056 245.248 323.416C245.504 320.792 245.568 319.512 245.696 315.544V310.936H241.856C239.424 311 237.248 311.32 234.944 311.832L233.28 308.568C236.096 308.888 238.912 309.016 241.728 309.08H245.696V291.672C240.064 300.696 231.808 308.184 220.992 313.432L220.416 312.792C230.208 305.176 237.568 293.208 241.216 281.88H231.552C228.224 281.944 225.152 282.264 221.952 282.776L220.352 279.512C223.168 279.832 225.984 279.96 228.864 280.024H245.696V277.464C245.696 273.112 245.44 267.864 244.864 264.344C255.68 266.712 255.68 267.352 254.4 268.248L253.12 269.08V280.024H266.432ZM383.616 272.216H389.696L391.424 269.72C392.32 268.44 393.088 267.16 393.6 267.16C394.368 267.16 399.872 272.024 399.872 272.984C399.744 273.688 399.104 274.008 398.208 274.008H383.616V275.416C383.744 276.824 383.68 277.336 383.808 277.912C383.616 278.872 380.928 279.896 377.6 279.896C376.448 279.896 376.192 279.256 376.192 278.616C376.32 277.784 376.32 277.336 376.448 275.992V274.008H365.44V275.544C365.568 277.08 365.568 277.592 365.696 278.232C365.44 279.192 362.688 280.152 359.552 280.152C358.336 280.152 358.08 279.512 358.08 278.872C358.208 277.976 358.208 277.464 358.336 276.056V274.008H353.088C349.76 274.072 346.688 274.392 343.488 274.904L341.952 271.704C344.768 272.024 347.584 272.152 350.464 272.216H358.336C358.336 269.656 358.208 266.52 357.888 264.344C367.552 266.52 367.552 267.16 366.464 267.864L365.44 268.504V272.216H376.448C376.448 269.656 376.32 266.52 376 264.344C385.792 266.456 385.792 267.096 384.704 267.8L383.616 268.504V272.216ZM358.4 300.888H371.072H383.808V293.272H358.4V300.888ZM358.4 291.48H371.072H383.808V284.248H358.4V291.48ZM383.168 282.456L384.64 280.664C385.472 279.768 386.112 278.808 386.624 278.808C387.392 278.808 393.088 283.096 393.088 284.056C392.768 284.504 392 285.08 390.912 285.272V291.352C391.04 297.432 391.104 299.48 391.36 303.192C390.848 304.024 387.392 305.624 385.024 305.624H383.808V302.68H374.72V310.232H389.184L390.976 307.608C391.936 306.264 392.768 304.92 393.28 304.92C394.048 304.92 400.128 310.04 400.128 311C399.936 311.704 399.296 312.024 398.336 312.024H374.72V315.672C374.848 319.256 374.848 320.472 375.04 322.52C374.656 323.224 372.416 324.696 368.768 324.696C367.424 324.696 367.04 324.056 367.04 323.416C367.232 321.048 367.296 319.832 367.424 316.248V312.024H353.152C349.824 312.088 346.752 312.408 343.552 312.92L341.952 309.72C344.768 310.04 347.584 310.168 350.464 310.232H367.424V302.68H358.4V304.472C358.4 305.24 355.328 306.84 352.448 306.84C351.424 306.84 350.976 306.2 350.976 305.56C351.232 302.744 351.296 301.336 351.424 297.048V292.12C351.424 287.768 351.168 282.52 350.592 279L358.848 282.456H383.168Z" fill="#EEF2E6"/>
<path d="M173.994 246.025C141.361 227.112 110.541 179.827 119.606 142C152.239 160.914 173.994 198.741 173.994 246.025Z" stroke="#8FC741" stroke-width="2.5" stroke-linecap="round" stroke-linejoin="round"/>
<path d="M173.994 246.025C206.627 223.329 235.634 189.284 228.382 155.24C199.375 166.588 173.994 204.415 173.994 246.025Z" stroke="#8FC741" stroke-width="2.2" stroke-linecap="round" stroke-linejoin="round"/>
<path d="M173.994 246.025C152.239 211.981 134.11 177.936 126.858 151.457" stroke="#8FC741" stroke-width="1.8" stroke-linecap="round" stroke-linejoin="round"/>
<path d="M173.994 246.025C192.124 211.981 210.253 181.719 213.879 159.022" stroke="#8FC741" stroke-width="1.6" stroke-linecap="round" stroke-linejoin="round"/>
<path d="M173.994 246.025C170.368 264.939 166.742 280.07 164.929 295.201" stroke="#8FC741" stroke-width="3.2" stroke-linecap="round" stroke-linejoin="round"/>
<defs>
<filter id="filter0_d_22_2" x="8.78003" y="180.53" width="481.816" height="79.91" filterUnits="userSpaceOnUse" color-interpolation-filters="sRGB">
<feFlood flood-opacity="0" result="BackgroundImageFix"/>
<feColorMatrix in="SourceAlpha" type="matrix" values="0 0 0 0 0 0 0 0 0 0 0 0 0 0 0 0 0 0 127 0" result="hardAlpha"/>
<feOffset dy="4"/>
<feGaussianBlur stdDeviation="2"/>
<feComposite in2="hardAlpha" operator="out"/>
<feColorMatrix type="matrix" values="0 0 0 0 0 0 0 0 0 0 0 0 0 0 0 0 0 0 0.25 0"/>
<feBlend mode="normal" in2="BackgroundImageFix" result="effect1_dropShadow_22_2"/>
<feBlend mode="normal" in="SourceGraphic" in2="effect1_dropShadow_22_2" result="shape"/>
</filter>
</defs>
</svg>
