<!--?xml version="1.0" encoding="utf-8"?-->
<!-- Generator: Adobe Illustrator 22.1.0, SVG Export Plug-In . SVG Version: 6.00 Build 0)  -->
<svg version="1.1" id="_x33_" xmlns="http://www.w3.org/2000/svg" xmlns:xlink="http://www.w3.org/1999/xlink" x="0px" y="0px" viewBox="-10 0 870 815" style="width: 250px; height: 100px;" xml:space="preserve">
<g>
	<path d="M799.082,527.747c-26.618-8.284-50.926-22.875-67.375-34.289c12.747-20.171,19.866-42.677,19.866-66.411
		c0-76.544-74.042-140.295-172.038-154.204c-33.065-49.378-118.668-84.554-219.063-84.554c-87.157,0-163.164,26.512-203.329,65.81
		C69.825,263.535,2,333.569,2,418.58c0,91.445,78.476,165.576,175.281,165.576c9.202,0,18.238-0.674,27.057-1.964
		c42.911,20.648,103.539,33.52,170.741,33.52c65.155,0,124.13-12.1,166.772-31.654c60.906-0.533,115.642-20.04,153.912-50.9
		c34.268,10.794,73.848,8.647,102.889,2.675C802.874,534.963,803.198,529.029,799.082,527.747z"
    fill="#FADA7A"
    stroke="#444"
    stroke-width="8">
    </path>
</g>
</svg>
